<svg class="logo" xmlns="http://www.w3.org/2000/svg" viewBox="0 0 62.45 40.56">
  <defs>
    <style>
      .blue {
        fill: url(#linear-gradient);
      }

      .dark {
        fill: url(#linear-gradient-4);
      }
    </style>
    <linearGradient id="linear-gradient" x1="12.37" y1="39.5" x2="17.37" y2="-1.18" gradientUnits="userSpaceOnUse">
      <stop offset="0.01" stop-color="#21bfd6"/>
      <stop offset="0.18" stop-color="#0fabec"/>
      <stop offset="0.35" stop-color="#049efa"/>
      <stop offset="0.5" stop-color="#009aff"/>
      <stop offset="0.65" stop-color="#05a0f9"/>
      <stop offset="0.84" stop-color="#13afe8"/>
      <stop offset="0.99" stop-color="#21bfd6"/>
    </linearGradient>
    <linearGradient id="linear-gradient-4" x1="27.07" y1="5.62" x2="23.79" y2="2.67" gradientUnits="userSpaceOnUse">
      <stop offset="0" stop-color="#3a3a3a"/>
      <stop offset="0.55" stop-color="#383838"/>
      <stop offset="0.75" stop-color="#313131"/>
      <stop offset="0.89" stop-color="#262626"/>
      <stop offset="1" stop-color="#161616"/>
    </linearGradient>
  </defs>
  <title>logo</title>
  <g id="top">
    <polygon class="blue first" points="5.86 20.28 21.04 5.73 26.98 0 21.04 0 0 20.28 21.04 40.56 26.98 40.56 21.04 34.83 5.86 20.28"/>
    <polygon class="blue second" points="41.41 0 35.48 0 41.41 5.73 56.59 20.28 41.41 34.83 35.48 40.56 41.41 40.56 62.45 20.28 41.41 0"/>
  </g>
  <g id="bottom">
    <polygon class="dark" points="26.98 40.56 21.04 34.83 35.48 0 41.41 5.73 26.98 40.56"/>
    <polygon class="dark" points="21.04 5.73 26.98 5.73 26.98 0 21.04 5.73"/>
    <polygon class="dark" points="41.41 34.83 35.48 34.83 35.48 40.56 41.41 34.83"/>
  </g>
</svg>
